<?xml version="1.0" encoding="UTF-8" standalone="no"?>
<svg
   viewBox="0 0 512 512"
   version="1.1"
   id="svg15"
   sodipodi:docname="codeberg.svg"
   inkscape:version="1.2.1 (9c6d41e410, 2022-07-14)"
   xmlns:inkscape="http://www.inkscape.org/namespaces/inkscape"
   xmlns:sodipodi="http://sodipodi.sourceforge.net/DTD/sodipodi-0.dtd"
   xmlns="http://www.w3.org/2000/svg"
   xmlns:svg="http://www.w3.org/2000/svg">
  <defs
     id="defs19">
    <filter
       style="color-interpolation-filters:sRGB;"
       inkscape:label="Lightness-Contrast"
       id="filter1778"
       x="0"
       y="0"
       width="1"
       height="1">
      <feColorMatrix
         values="0.21 0.72 0.072 0 0 0.21 0.72 0.072 0 0 0.21 0.72 0.072 0 0 0 0 0 1 0 "
         id="feColorMatrix1776"
         result="fbSourceGraphic" />
      <feColorMatrix
         result="fbSourceGraphicAlpha"
         in="fbSourceGraphic"
         values="0 0 0 -1 0 0 0 0 -1 0 0 0 0 -1 0 0 0 0 1 0"
         id="feColorMatrix1873" />
      <feColorMatrix
         id="feColorMatrix1875"
         values="1 0 0 0.253601 -0 0 1 0 0.253601 -0 0 0 1 0.253601 -0 0 0 0 1 0"
         in="fbSourceGraphic" />
    </filter>
    <filter
       style="color-interpolation-filters:sRGB;"
       inkscape:label="Lightness-Contrast"
       id="filter1782"
       x="0"
       y="0"
       width="1"
       height="1">
      <feColorMatrix
         values="0.21 0.72 0.072 0 0 0.21 0.72 0.072 0 0 0.21 0.72 0.072 0 0 0 0 0 1 0 "
         id="feColorMatrix1780"
         result="fbSourceGraphic" />
      <feColorMatrix
         result="fbSourceGraphicAlpha"
         in="fbSourceGraphic"
         values="0 0 0 -1 0 0 0 0 -1 0 0 0 0 -1 0 0 0 0 1 0"
         id="feColorMatrix1877" />
      <feColorMatrix
         id="feColorMatrix1879"
         values="1 0 0 0.253601 -0 0 1 0 0.253601 -0 0 0 1 0.253601 -0 0 0 0 1 0"
         in="fbSourceGraphic" />
    </filter>
    <filter
       style="color-interpolation-filters:sRGB;"
       inkscape:label="Greyscale"
       id="filter1786"
       x="0"
       y="0"
       width="1"
       height="1">
      <feColorMatrix
         values="0.21 0.72 0.072 0 0 0.21 0.72 0.072 0 0 0.21 0.72 0.072 0 0 0 0 0 1 0 "
         id="feColorMatrix1784" />
    </filter>
  </defs>
  <sodipodi:namedview
     id="namedview17"
     pagecolor="#ffffff"
     bordercolor="#666666"
     borderopacity="1.0"
     inkscape:showpageshadow="2"
     inkscape:pageopacity="0.0"
     inkscape:pagecheckerboard="0"
     inkscape:deskcolor="#d1d1d1"
     showgrid="false"
     inkscape:zoom="1.5332031"
     inkscape:cx="256"
     inkscape:cy="204.14777"
     inkscape:window-width="1920"
     inkscape:window-height="951"
     inkscape:window-x="0"
     inkscape:window-y="32"
     inkscape:window-maximized="1"
     inkscape:current-layer="svg15" />
  <linearGradient
     id="a"
     gradientUnits="userSpaceOnUse"
     x1="259.804"
     x2="383.132"
     y1="161.4"
     y2="407.835">
    <stop
       offset="0"
       stop-color="#fff"
       stop-opacity="0"
       id="stop2" />
    <stop
       offset=".5"
       stop-color="#71c2ff"
       id="stop4" />
    <stop
       offset="1"
       stop-color="#39aaff"
       id="stop6" />
  </linearGradient>
  <path
     d="m 259.804,161.4 c -0.44,0 -1.1,0 -1.32,0.44 l -0.44,1.1 73.996,277.27 a 192.039,192.039 0 0 0 86.77,-74.437 L 261.125,162.06 a 1.762,1.762 0 0 0 -1.321,-0.661 z"
     fill="url(#a)"
     opacity="0.5"
     id="path11"
     style="fill:url(#a);filter:url(#filter1782)"
     transform="matrix(1.3242691,0,0,1.3242691,-82.717006,-82.736123)" />
  <path
     d="m 255.3,71.8 a 192,192 0 0 0 -162,294 l 160.1,-207 c 0.5,-0.6 1.5,-1 2.6,-1 1.1,0 2,0.4 2.6,1 l 160,207 a 192,192 0 0 0 29.4,-102 c 0,-106 -86,-192 -192,-192 a 192,192 0 0 0 -0.7,0 z"
     fill="#2185d0"
     id="path13"
     style="filter:url(#filter1778)"
     transform="matrix(1.3242691,0,0,1.3242691,-82.717006,-82.736123)" />
</svg>
